<?xml version="1.0" encoding="utf-8"?>
<!-- Generator: Adobe Illustrator 18.1.1, SVG Export Plug-In . SVG Version: 6.00 Build 0)  -->
<svg version="1.1" id="Layer_1" xmlns="http://www.w3.org/2000/svg" xmlns:xlink="http://www.w3.org/1999/xlink" x="0px" y="0px"
	 viewBox="0 0 30 26" enable-background="new 0 0 30 26" xml:space="preserve">
<g>
	<path fill="#B0B0BC" d="M27,6H3C1.3,6,0,4.7,0,3v0c0-1.7,1.3-3,3-3h24c1.7,0,3,1.3,3,3v0C30,4.7,28.7,6,27,6z"/>
	<path fill="#B0B0BC" d="M27,16H3c-1.7,0-3-1.3-3-3v0c0-1.7,1.3-3,3-3h24c1.7,0,3,1.3,3,3v0C30,14.7,28.7,16,27,16z"/>
	<path fill="#B0B0BC" d="M27,26H3c-1.7,0-3-1.3-3-3v0c0-1.7,1.3-3,3-3h24c1.7,0,3,1.3,3,3v0C30,24.7,28.7,26,27,26z"/>
</g>
</svg>
